<svg width="250" height="65" viewBox="0 0 250 65" fill="none" xmlns="http://www.w3.org/2000/svg">
<g clip-path="url(#clip0_1156_2)">
<path d="M0 1.19409V62.6723H14.0517V1.19409H0Z" fill="#F41612"/>
<path d="M65.8709 1.19409H20.2016V14.7182H36.0104V62.6723H50.0621V14.7182H65.8709V1.19409Z" fill="#F41612"/>
<path d="M96.2086 1.23202H71.5739V62.8188H96.2086C113.189 62.8188 126.122 49.4461 126.122 32.0241C126.122 14.6046 113.189 1.22949 96.2086 1.22949V1.23202ZM96.2086 49.2694H85.6509V14.7814H96.2086C105.885 14.7814 112.573 21.4689 112.573 32.0266C112.573 42.5844 105.885 49.2719 96.2086 49.2719V49.2694Z" fill="#007CDE"/>
<path d="M163.428 64.0508C181.112 64.0508 195.452 50.1505 195.452 32.0242C195.452 13.9003 181.11 -0.00244141 163.428 -0.00244141C145.743 -0.00244141 131.401 13.8978 131.401 32.0242C131.401 50.148 145.743 64.0508 163.428 64.0508ZM163.428 50.3247C153.398 50.3247 145.478 43.0212 145.478 32.0242C145.478 21.0272 153.398 13.7236 163.428 13.7236C173.458 13.7236 181.375 21.0272 181.375 32.0242C181.375 43.0212 173.458 50.3247 163.428 50.3247Z" fill="#007CDE"/>
<path d="M235.923 0.353516V33.7863L212.169 0.353516H201.612V61.9403H215.689V28.5075L239.442 61.9403H250V0.353516H235.923Z" fill="#007CDE"/>
</g>
<defs>
<clipPath id="clip0_1156_2">
<rect width="250" height="64.0509" fill="white"/>
</clipPath>
</defs>
</svg>
